<?xml version="1.0" encoding="UTF-8"?>
<svg xmlns="http://www.w3.org/2000/svg" id="a" width="865.76" height="682.89" viewBox="0 0 865.76 682.89">
  <line x1="754.53" y1="605.68" x2="503.26" y2="523.62" fill="none" stroke="#002346" stroke-linecap="round" stroke-linejoin="round"></line>
  <line x1="105.64" y1="479.81" x2="443.69" y2="479.81" fill="none" stroke="#002346" stroke-linecap="round" stroke-linejoin="round"></line>
  <g>
    <path d="M292.03,534.49c0,8.9-32.72,16.11-73.09,16.11s-73.1-7.21-73.1-16.11c.06-1.22,.59-2.37,1.47-3.22,6.77-7.35,36.26-12.89,71.63-12.89s64.86,5.54,71.63,12.89c.88,.85,1.4,2,1.46,3.22Z" fill="#e6e7e8" stroke="#002346" stroke-miterlimit="10"></path>
    <path d="M258.02,126.88l18-19.6-18.71-17.14c-5.41-4.96-13.82-4.59-18.78,.82,0,0,0,0,0,0h0c-4.96,5.41-4.59,13.82,.82,18.78,0,0,0,0,0,0l6.26,5.73-80.8,198.73h-5.9v-6.44c0-.89-.72-1.61-1.61-1.61s-1.61,.72-1.61,1.61v6.44h-1c-2.11,.11-3.74,1.91-3.63,4.02,.1,1.96,1.67,3.53,3.63,3.63h1v9.27c0,.89,.72,1.61,1.61,1.61s1.61-.72,1.61-1.61h0v-9.24h5.43l50.15,201.74h10.5l-50.4-206L253.54,122.73l4.48,4.15Z" fill="#fff" stroke="#002346" stroke-miterlimit="10"></path>
    <path d="M263.19,173.25s-33.43-31-3.23-67.66c0,0,25.78-28.19,61.22-6l-57.99,73.66Z" fill="#ffffff" stroke="#002346" stroke-miterlimit="10"></path>
    <ellipse cx="292.92" cy="137.34" rx="47.26" ry="11.03" transform="translate(5.46 285.77) rotate(-52.43)" fill="#fff" stroke="#002346" stroke-miterlimit="10"></ellipse>
    <circle cx="295.43" cy="137.41" r="9.26" fill="#ffffff" stroke="#002346" stroke-miterlimit="10"></circle>
  </g>
  <line x1="375.2" y1="475.87" x2="375.2" y2="76.93" fill="none" stroke="#002346" stroke-linecap="round" stroke-linejoin="round"></line>
  <path d="M462.09,57.15V395.58l254.8,41.92V15.23l-254.8,41.92Zm248.2,96.9l-129.56,7.34V43.82l129.54-20.62,.02,130.85Zm-129.58,19.7l129.56-5.94v118.24l-129.56-6.06v-106.24Zm-10.51,105.75l-100.84-4.85v-95.64l100.84-4.76v105.25Zm0-234v116.48l-100.84,5.89V62.01l100.84-16.51Zm-100.84,240.25l100.84,6v115.49l-100.84-16.49v-105Zm111.35,123.16v-116.54l129.56,7.45v129.71l-129.56-20.62Z" fill="#fff" stroke="#002346" stroke-miterlimit="10"></path>
  <path d="M356.97,300.75s-46.2-5.47-76.6,18.24-56.53,122.8-55.92,170.21,18.23,71.13,62.61,90.58,127,12.16,173.25-2.43c46.25-14.59,61.4-65.66,60.79-93s-31-59-41.34-65.65-39.51-20.67-54.1-42.56c-14.59-21.89-35.87-69.27-68.69-75.39Z" fill="#e6e7e8" stroke="#002346" stroke-miterlimit="10"></path>
  <path d="M338.78,322.22s-30.15,5.77-35.48,11.09-27.49,88.67-27.49,88.67c0,0,9.76-2.66,18.63,.89s9.75,12.88,10.65,17.29,1.33,16,1.33,16c0,0,89.62-8,108.69-12.44,19.07-4.44,48.08-6.47,48.08-6.47,0,0-49-110.55-56.57-114.54s-39-4.44-43.45-3.55-24.39,3.06-24.39,3.06Z" fill="#000000" stroke="#002346" stroke-miterlimit="10"></path>
  <path d="M355.33,305.67s-16.55,5.32-18.92,9.46-.59,33.1-.59,36.65,2.07-2.07,3.84-6.21,8-10.34,10.05-9.75,3.25,3,3.25,6.8,4.73,9.13,8.87,12.13,8,5.91,8,5.91c0,0,8.57-12.42,10.64-15.67s1.78-10.05,2.07-12.41,5.62,6.5,6.8,4.14-2.66-4.44-6.8-10.94-2.95-13.3-9.16-18-13.29-3.29-18.05-2.11Z" fill="#fff" stroke="#002346" stroke-miterlimit="10"></path>
  <path d="M316.16,425.53s-10.2-14.63-22.61-16-27.49,8.87-27.93,12.41-3.55,22.62-1.33,25.28,10.64,4.87,27-.45,23.1-11.93,24.87-21.24Z" fill="#fff" stroke="#002346" stroke-miterlimit="10"></path>
  <path d="M281.58,429.52s-16.64,6.61-17.29,19.51c-.36,7.14,11.52,10.2,23.94,10.2s30.15-15.52,41.68-22.17,38.13-22.17,41.23-23.5,13.75,2.22,18.18,3.55,12.86,1.33,12.86,1.33c0,0,6.21,9.75,9.31,9.75s-6.65-14.63-8-17.73-23.06-10.2-25.72-10.2-64.68,15.49-74.02,19.06-22.17,10.2-22.17,10.2Z" fill="#f1b2c0" stroke="#002346" stroke-miterlimit="10"></path>
  <path d="M411.26,330.91l-13.51,76,97.54,.44,14.51-72.07c.49-2.43-1.08-4.79-3.51-5.27-.24-.05-.49-.08-.74-.09l-89.75-2.7c-2.22-.07-4.15,1.5-4.54,3.69Z" fill="#e6e7e8" stroke="#002346" stroke-miterlimit="10"></path>
  <polygon points="397.75 406.91 350.25 440.5 458.88 437.4 495.29 407.35 397.75 406.91" fill="#fff" stroke="#002346" stroke-miterlimit="10"></polygon>
  <path d="M433.66,440.16s39-34.14,77.59-45.67,46.56-9.75,45.67,7.54-19.51,107.72-31.92,130.8-27.91,65.18-27.49,73.16,15.52,31.48,28.82,39.9,12,18.63,3.54,20.4-18.17,4.88-47-13.75-40.8-45.22-39-51.87,20.39-15.52,27.93-28.82,19.95-63,20.84-85.58c.72-14.27,3.72-28.34,8.87-41.67,0,0-48.77,8.86-63,17.73l-4.85-22.17Z" fill="#f1b2c0" stroke="#002346" stroke-miterlimit="10"></path>
  <path d="M471.79,571.85c-.56,1-1.21,2-1.88,2.91,6.84,.76,16.7,3.19,24.94,10.39,2.12,1.85,4.14,3.8,6.06,5.86,8.5-11.4,18.06-47.44,28.84-62.26,27.87-38.29,26.28-109.43,27.17-126.72s-7.09-19.06-45.67-7.54-77.59,45.67-77.59,45.67l4.88,22.17c14.19-8.87,63-17.73,63-17.73-5.15,13.33-8.15,27.4-8.87,41.67-.93,22.62-13.34,72.28-20.88,85.58Z" fill="#ffffff" stroke="#002346" stroke-miterlimit="10"></path>
  <path d="M375.2,475.87s21.89-.61,41.95-7.9c20.06-7.29-16.41-20.67-30.4-13.38-8.01,3.89-12.65,12.45-11.55,21.28Z" fill="#ffffff" stroke="#002346" stroke-miterlimit="10"></path>
  <path d="M317.49,447.26s-14.19,8-19.06,16.85,16.11,23.64,38.28,22.76,62.81-25,62.81-25c0,0,.44,39,8,53.2,7.56,14.2,42.12,48.78,55.87,57.64s59.85,42.13,67,47.45,20.39,15.07,23.5,15.52,35.47-39,43-52.32,14.18-41.24,11.52-47.45-8-.88-13.3,3.55-54.09,36.8-58.52,39c-2.42,1.24-4.94,2.28-7.54,3.1,0,0-39.96-38.09-61.25-67.35s-23.06-67-31-81.14c-7.94-14.14-19.51-20.4-36.8-18.62s-53.24,11.08-82.51,32.81Z" fill="#f1b2c0" stroke="#002346" stroke-miterlimit="10"></path>
  <path d="M527.62,577.27c-9.42-9.19-47.65-54.67-61.52-81.81-20.34-39.76-22.54-53.31-30.52-67.49-7.98-14.18-20-15.3-37.32-13.52s-48.23,5-86.19,26.51c0,0-15.94,8.66-20.82,17.53s14.36,33.42,45.23,30.6c20.41-1.85,55.02-21.52,60.2-24.53,.3-.17,.67,.03,.68,.37,.18,5.31,1.54,37.18,8.44,50.15,7.54,14.18,42.12,48.78,55.86,57.64,8.72,5.63,30.44,21,47,32.95,4.96-10.41,14.96-21.41,18.96-28.41Z" fill="#ffffff" stroke="#002346" stroke-miterlimit="10"></path>
  <path d="M530.32,620.18c7.09,5.32,20.39,15.07,23.5,15.52s35.47-39,43-52.32,14.18-41.24,11.52-47.45-8-.88-13.3,3.55-54.09,36.8-58.52,39c-1.17,.58-2.23,1.06-3.18,1.47-1.28,2.43-2.83,6.2-1.7,8.73,1.77,4,9.31,9.31,9.31,9.31l-13.41,20.12c1.2,.89,2.15,1.64,2.78,2.07Z" fill="#000000" stroke="#002346" stroke-miterlimit="10"></path>
  <path d="M596.83,583.38c7.53-13.31,14.18-41.24,11.52-47.45-1.54-3.59-4-3.31-6.78-1.58,1.86,8.29,0,24.28-9.18,41.49-8.17,15.36-33.42,42.5-46.15,55.73,3.45,2.27,6.34,3.95,7.58,4.13,3.1,.44,35.47-39.02,43.01-52.32Z" fill="#fff" stroke="#002346" stroke-miterlimit="10"></path>
  <path d="M526.33,645.89c-13.3-8.42-28.38-31.92-28.82-39.9-.02-.88,.05-1.76,.21-2.62-2.65,.1-5.2,1.01-7.31,2.62,0,0-9.75-8.87-17.29-13.75-5.4-3.49-12.37-4.48-15.9-4.76-6.44,5.29-12.4,9.57-13.36,13.19-1.78,6.65,10.2,33.25,39,51.87s38.57,15.52,47,13.75,9.77-11.97-3.53-20.4Z" fill="#000000" stroke="#002346" stroke-miterlimit="10"></path>
  <path d="M528.54,649c-11.52-6.65-35-11.09-50.1-21.29s-11.08-19.06-22.17-26.16c-5.09-3.25-9.34-2.49-12.44-.71-1.54,6.92,10.46,33.23,39.05,51.7,28.82,18.63,38.57,15.52,47,13.75,5.6-1.18,8-6.08,5.15-11.71-1.81-2.23-4.01-4.12-6.49-5.58Z" fill="#fff" stroke="#002346" stroke-miterlimit="10"></path>
  <path d="M307.6,564.19s8.49-10.34,9.73-2.44-.61,22.5-6.69,28-9.12-3-9.12-3l3.65-4.87s3,6.08,5.47-3.64-4.86-8.51-4.86-8.51l1.82-5.54Z" fill="#ffffff" stroke="#002346" stroke-miterlimit="10"></path>
  <path d="M301.09,603.09c-5,3.73-21.45,3.73-26.49,0-10.66-7.89-8.82-46-8.82-46h44.09s1.87,38.11-8.78,46Z" fill="#ffffff" stroke="#002346" stroke-miterlimit="10"></path>
  <path d="M309.87,557.08c0,1.1-9.87,2-22,2s-22-.9-22-2,9.87-2,22-2,22,.89,22,2Z" fill="#fff" stroke="#002346" stroke-miterlimit="10"></path>
  <path d="M350.58,282.68s2.06,22.4,2.93,29.47,2.85,27.4,4.89,34.12,13.15,18.41,14.23,15.71,6.57-21,4.37-31.83-2.87-20.29-1.5-23,6.28-5.87,6.28-5.87c-5.73-2.92-11.29-6.16-16.66-9.7-7.9-5.32-13.46-11.31-14.54-8.9Z" fill="#f1b2c0" stroke="#002346" stroke-miterlimit="10"></path>
  <rect x="344.13" y="230.16" width="54.34" height="77.78" rx="27.17" ry="27.17" transform="translate(-69.18 141.64) rotate(-19.8)" fill="#f1b2c0" stroke="#002346" stroke-miterlimit="10"></rect>
  <path d="M351.89,271.51s-1.8,3.55,3.2,3.74,8.4-2.27,6-5.26-6-5.94-2.32-9.94,10.9-7.38,6.87-11.85-18.93-.41-15.22-4,20.94-7.45,28.67-6.95,22.17-5.51,25.33-13.35-1.26-22.34-11.65-21.54-18.14,10-22.74,10.54-14.08-4.46-22,.1-8.2,17.3-8.91,18.87-9.42,2.93-11.31,13.81,3.09,19.56,7.52,24.4c2.26,2.46,3.37,4.42,3.91,5.74,.41,.99,1.56,1.43,2.51,.94l10.14-5.24Z" fill="#002346" stroke="#002346" stroke-miterlimit="10"></path>
  <path d="M369.67,369.86l-82.37-40.33v-56.64c0-2.83-2.29-5.12-5.12-5.12H147.18c-2.83,0-5.12,2.29-5.12,5.12v100.86c0,2.83,2.29,5.12,5.12,5.12h135c2.83,0,5.12-2.29,5.12-5.12v-25.34l82.37,21.45Z" fill="#fff" stroke="#002346" stroke-miterlimit="10"></path>
  <rect x="275.49" y="278.45" width="4.27" height="89.73" fill="#000000" stroke="#002346" stroke-miterlimit="10"></rect>
  <ellipse cx="345.62" cy="278.27" rx="5.39" ry="7.78" transform="translate(-92.83 210.09) rotate(-30)" fill="#f1b2c0" stroke="#002346" stroke-miterlimit="10"></ellipse>
  <path d="M372.63,361.98l-1.72,13.51c-.1,.76,.49,1.45,1.26,1.44,2.2,0,5.82,.65,2.71,5.6-.39,.62-.21,1.44,.42,1.81,3.33,1.94,12.54,7.9,14.46,15.77" fill="none" stroke="#002346" stroke-linecap="round" stroke-linejoin="round"></path>
  <line x1="315.98" y1="360.66" x2="309.34" y2="417.23" fill="none" stroke="#002346" stroke-linecap="round" stroke-linejoin="round"></line>
  <line x1="324.12" y1="364.77" x2="313.97" y2="377.78" fill="none" stroke="#002346" stroke-linecap="round" stroke-linejoin="round"></line>
  <ellipse cx="383.38" cy="259.8" rx="7.26" ry="9" transform="translate(-65.33 145.19) rotate(-19.8)" fill="none" stroke="#002346" stroke-linecap="round" stroke-linejoin="round"></ellipse>
  <ellipse cx="398.92" cy="254.32" rx="5.71" ry="9" transform="translate(-62.56 150.13) rotate(-19.8)" fill="none" stroke="#002346" stroke-linecap="round" stroke-linejoin="round"></ellipse>
  <line x1="348.5" y1="273.27" x2="376.15" y2="260.84" fill="none" stroke="#002346" stroke-linecap="round" stroke-linejoin="round"></line>
  <path d="M389.56,255.9s.06-2.63,3.06-1.63" fill="none" stroke="#002346" stroke-linecap="round" stroke-linejoin="round"></path>
  <line x1="403.3" y1="250.39" x2="395.55" y2="254.11" fill="none" stroke="#002346" stroke-linecap="round" stroke-linejoin="round"></line>
  <rect x="153.62" y="278.27" width="35" height="89" fill="#000000" stroke="#002346" stroke-miterlimit="10"></rect>
  <line x1="153.62" y1="367.27" x2="188.62" y2="278.27" fill="none" stroke="#002346" stroke-linecap="round" stroke-linejoin="round"></line>
  <g>
    <line x1="198.33" y1="280.41" x2="266.2" y2="280.41" fill="none" stroke="#002346" stroke-linecap="round" stroke-linejoin="round"></line>
    <line x1="198.33" y1="290.07" x2="266.2" y2="290.07" fill="none" stroke="#002346" stroke-linecap="round" stroke-linejoin="round"></line>
    <line x1="198.33" y1="299.74" x2="266.2" y2="299.74" fill="none" stroke="#002346" stroke-linecap="round" stroke-linejoin="round"></line>
    <line x1="198.33" y1="309.41" x2="266.2" y2="309.41" fill="none" stroke="#002346" stroke-linecap="round" stroke-linejoin="round"></line>
  </g>
  <line x1="198.33" y1="329.41" x2="266.2" y2="329.41" fill="none" stroke="#002346" stroke-linecap="round" stroke-linejoin="round"></line>
  <line x1="198.33" y1="339.07" x2="266.2" y2="339.07" fill="none" stroke="#002346" stroke-linecap="round" stroke-linejoin="round"></line>
  <line x1="198.33" y1="348.74" x2="266.2" y2="348.74" fill="none" stroke="#002346" stroke-linecap="round" stroke-linejoin="round"></line>
  <line x1="198.33" y1="367.27" x2="266.2" y2="367.27" fill="none" stroke="#002346" stroke-linecap="round" stroke-linejoin="round"></line>
  <g>
    <path d="M594.29,516.07c.22,2.56,.56,5.45,1.05,8.4,0,0,10.38-33.97,44.5-29.58l-6.7-14.76-5.54-5.54c-11.13,5.78-21.89,4.04-29.25,18.96-3.43,6.97-4.72,14.79-4.04,22.53Z" fill="#7cd295" stroke="#002346" stroke-miterlimit="10"></path>
    <path d="M690.48,483.55c-30.79,.04-35.39-45.34-4.29-83.11,.1-.12,.3-.04,.28,.12-1.23,12.87,36.57,59.02,11.8,80.14-2.18,1.86-4.93,2.84-7.79,2.85Z" fill="#7cd295" stroke="#002346" stroke-miterlimit="10"></path>
    <path d="M688.62,466.6c-19.43-11.53-15.04-46.1,42.51-66.49,.11-.04,.22,.06,.18,.17-.65,1.88-4.47,14.11-6.47,48.61-.53,9.2-13.67,31.1-36.22,17.71Z" fill="#7cd295" stroke="#002346" stroke-miterlimit="10"></path>
    <path d="M708.72,542.36c.87,6.8-45.22,6.8-44.34,0-.87-6.8,45.22-6.8,44.34,0Z" fill="#002346" stroke="#002346" stroke-miterlimit="10"></path>
    <path d="M710.54,602.58c-1.99-.3-52.75,.87-52.87-.94-10-4.74-10.43-20.23-10.43-20.23-1.51-20.66,17.13-31.75,17.13-31.75v-7.31c-.87,6.8,45.22,6.8,44.34,0v7.81c24.4,16.02,19.46,50.78,1.82,52.41Z" fill="#000000" stroke="#002346" stroke-miterlimit="10"></path>
    <path d="M710.23,559.24c.06,3.92-6.1,3.92-6.05,0-.06-3.92,6.1-3.92,6.05,0Z" fill="#fff"></path>
    <path d="M719.3,568.31c.06,3.92-6.1,3.92-6.05,0-.06-3.92,6.1-3.92,6.05,0Z" fill="#fff"></path>
    <path d="M720.81,582.92c.06,3.92-6.1,3.92-6.05,0-.06-3.92,6.1-3.92,6.05,0Z" fill="#fff"></path>
    <path d="M712.75,594.01c.06,3.92-6.1,3.92-6.05,0-.06-3.92,6.1-3.92,6.05,0Z" fill="#fff"></path>
    <path d="M688.06,597.03c.06,3.92-6.1,3.92-6.05,0-.06-3.92,6.1-3.92,6.05,0Z" fill="#fff"></path>
    <path d="M668.91,594.01c.06,3.92-6.1,3.92-6.05,0-.06-3.92,6.1-3.92,6.05,0Z" fill="#fff"></path>
    <path d="M658.33,585.44c.06,3.92-6.1,3.92-6.05,0-.06-3.92,6.1-3.92,6.05,0Z" fill="#fff"></path>
    <path d="M659.84,568.31c.06,3.92-6.1,3.92-6.05,0-.06-3.92,6.1-3.92,6.05,0Z" fill="#fff"></path>
    <path d="M670.92,558.23c.06,3.92-6.1,3.92-6.05,0-.06-3.92,6.1-3.92,6.05,0Z" fill="#fff"></path>
    <path d="M681,567.3c.06,3.92-6.1,3.92-6.05,0-.06-3.92,6.1-3.92,6.05,0Z" fill="#fff"></path>
    <path d="M669.41,575.36c.06,3.92-6.1,3.92-6.05,0-.06-3.92,6.1-3.92,6.05,0Z" fill="#fff"></path>
    <path d="M679.49,585.44c.06,3.92-6.1,3.92-6.05,0-.06-3.92,6.1-3.92,6.05,0Z" fill="#fff"></path>
    <path d="M690.58,576.88c.06,3.92-6.1,3.92-6.05,0-.06-3.92,6.1-3.92,6.05,0Z" fill="#fff"></path>
    <path d="M692.59,559.74c.06,3.92-6.1,3.92-6.05,0-.06-3.92,6.1-3.92,6.05,0Z" fill="#fff"></path>
    <path d="M701.66,570.32c.06,3.92-6.1,3.92-6.05,0-.06-3.92,6.1-3.92,6.05,0Z" fill="#fff"></path>
    <path d="M708.72,577.38c.06,3.92-6.1,3.92-6.05,0-.06-3.92,6.1-3.92,6.05,0Z" fill="#fff"></path>
    <path d="M698.64,587.46c.06,3.92-6.1,3.92-6.05,0-.06-3.92,6.1-3.92,6.05,0Z" fill="#fff"></path>
    <path d="M735.93,508.34c-16.62-13.54-40.25,5.04-16.63,28.22,0,0,12.09,11.09,17.13,22.68,0,0,23.18-16.63,23.68-39.31,0,0,0-23.18-24.19-11.59Z" fill="#7cd295" stroke="#002346" stroke-miterlimit="10"></path>
    <path d="M594.86,505.54c26.11-46.03,37.26,1.31,76.57-5.26,.59-52.92-75.99-50.69-76.57,5.26Z" fill="#7cd295" stroke="#002346" stroke-miterlimit="10"></path>
    <path d="M664.37,549.66s18.6,9.55,44.34,.5" fill="none" stroke="#002346" stroke-linecap="round" stroke-linejoin="round"></path>
    <path d="M691.21,525.24s10.95-45.99,38.82-23.68c3.92,3.14,6.38,7.75,7.57,12.63,1.85,7.55,4.2,21.31,1.24,34.59" fill="none" stroke="#002346" stroke-linecap="round" stroke-linejoin="round"></path>
    <path d="M726.79,404.26s-51.46,37.23-33.94,137.96" fill="none" stroke="#002346" stroke-linecap="round" stroke-linejoin="round"></path>
    <path d="M615.11,475.43s67.88-1.09,70.07,65.69" fill="none" stroke="#002346" stroke-linecap="round" stroke-linejoin="round"></path>
  </g>
  <path d="M274.99,501.33s.5,2.88-1.92,4.84c-1.58,1.27-2.59,3.18-2.54,5.21,.03,1.5,.61,3.16,2.37,4.65,.98,.83,1.78,1.87,2.11,3.11,.46,1.74,.43,4.23-2,6.68,0,0-4.59,3.93,0,9.19,0,0,5.51,4.59-.45,10.42,0,0-2.36,2.5-1.66,5.17" fill="none" stroke="#002346" stroke-linecap="round" stroke-linejoin="round"></path>
  <path d="M289.21,521.56c-.15,1.32-.74,2.8-2.19,4.26,0,0-4.59,3.93,0,9.19,0,0,5.51,4.59-.45,10.42,0,0-2.36,2.5-1.66,5.17" fill="none" stroke="#002346" stroke-linecap="round" stroke-linejoin="round"></path>
  <path d="M301.99,501.33s.5,2.88-1.92,4.84c-1.58,1.27-2.59,3.18-2.54,5.21,.03,1.5,.61,3.16,2.37,4.65,.98,.83,1.78,1.87,2.11,3.11,.46,1.74,.43,4.23-2,6.68,0,0-4.59,3.93,0,9.19,0,0,5.51,4.59-.45,10.42,0,0-2.36,2.5-1.66,5.17" fill="none" stroke="#002346" stroke-linecap="round" stroke-linejoin="round"></path>
</svg>
